<svg width="24" height="16" viewBox="0 0 24 16" fill="none" xmlns="http://www.w3.org/2000/svg">
<path d="M23.7919 7.42407L16.3614 0.153479C16.2183 0.0444135 16.0394 -0.00965884 15.8584 0.00141903C15.6774 0.0124969 15.5067 0.0879628 15.3785 0.213641C15.2502 0.339319 15.1732 0.50656 15.1619 0.68395C15.1506 0.86134 15.2058 1.03667 15.3171 1.17701L21.4751 7.2123H0.744247C0.546861 7.2123 0.357559 7.28915 0.217985 7.42594C0.0784117 7.56273 0 7.74826 0 7.94171C0 8.13517 0.0784117 8.32069 0.217985 8.45749C0.357559 8.59428 0.546861 8.67113 0.744247 8.67113H21.4631L15.3171 14.6947C15.2338 14.7581 15.1651 14.8383 15.1158 14.9297C15.0665 15.0212 15.0376 15.1219 15.031 15.2251C15.0244 15.3284 15.0403 15.4318 15.0777 15.5286C15.115 15.6253 15.1729 15.7132 15.2475 15.7864C15.3222 15.8595 15.4118 15.9163 15.5106 15.9529C15.6093 15.9894 15.7148 16.005 15.8202 15.9986C15.9255 15.9921 16.0283 15.9638 16.1216 15.9155C16.2149 15.8671 16.2967 15.7999 16.3614 15.7182L23.7919 8.43583C23.9254 8.29992 24 8.11861 24 7.92995C24 7.74129 23.9254 7.55998 23.7919 7.42407Z" fill="#FEFEFE"/>
</svg>
