<svg width="40" height="40" viewBox="0 0 40 40" fill="none" xmlns="http://www.w3.org/2000/svg">
<path fill-rule="evenodd" clip-rule="evenodd" d="M5.74074 11.6667C5.33164 11.6667 5 10.9205 5 10C5 9.07957 5.33164 8.33337 5.74074 8.33337H17.5926C18.0017 8.33337 18.3333 9.07957 18.3333 10C18.3333 10.9205 18.0017 11.6667 17.5926 11.6667H5.74074ZM6.66667 21.6667C5.74619 21.6667 5 20.9205 5 20C5 19.0796 5.74619 18.3334 6.66667 18.3334H33.3333C34.2538 18.3334 35 19.0796 35 20C35 20.9205 34.2538 21.6667 33.3333 21.6667H6.66667ZM21.4286 29.9998C21.4286 30.7888 21.7484 31.4284 22.1429 31.4284H33.5714C33.9659 31.4284 34.2857 30.7888 34.2857 29.9998C34.2857 29.2108 33.9659 28.5712 33.5714 28.5712H22.1429C21.7484 28.5712 21.4286 29.2108 21.4286 29.9998Z" fill="#222B45"/>
<mask id="mask0_1_695" style="mask-type:alpha" maskUnits="userSpaceOnUse" x="5" y="8" width="30" height="24">
<path fill-rule="evenodd" clip-rule="evenodd" d="M5.74074 11.6667C5.33164 11.6667 5 10.9205 5 10C5 9.07957 5.33164 8.33337 5.74074 8.33337H17.5926C18.0017 8.33337 18.3333 9.07957 18.3333 10C18.3333 10.9205 18.0017 11.6667 17.5926 11.6667H5.74074ZM6.66667 21.6667C5.74619 21.6667 5 20.9205 5 20C5 19.0796 5.74619 18.3334 6.66667 18.3334H33.3333C34.2538 18.3334 35 19.0796 35 20C35 20.9205 34.2538 21.6667 33.3333 21.6667H6.66667ZM21.4286 29.9998C21.4286 30.7888 21.7484 31.4284 22.1429 31.4284H33.5714C33.9659 31.4284 34.2857 30.7888 34.2857 29.9998C34.2857 29.2108 33.9659 28.5712 33.5714 28.5712H22.1429C21.7484 28.5712 21.4286 29.2108 21.4286 29.9998Z" fill="white"/>
</mask>
<g mask="url(#mask0_1_695)">
</g>
</svg>
