<svg aria-hidden="true" style="position: absolute; width: 0; height: 0; overflow: hidden;" version="1.1" xmlns="http://www.w3.org/2000/svg" xmlns:xlink="http://www.w3.org/1999/xlink">
<defs>
<symbol id="icon-bus" viewBox="0 0 32 32">
<path fill="#647b64" style="fill: var(--color1, #647b64)" d="M5.333 18v7.2c0 2.267 1.853 4.133 4.133 4.133h13.067c2.267 0 4.133-1.853 4.133-4.133v-7.2c0-0.373-0.293-0.667-0.667-0.667h-20c-0.373 0-0.667 0.293-0.667 0.667zM11.84 24.507c-0.307 0.32-0.733 0.493-1.173 0.493-0.107 0-0.213-0.013-0.32-0.027-0.107-0.027-0.213-0.053-0.32-0.107-0.093-0.040-0.2-0.093-0.28-0.147-0.093-0.067-0.187-0.133-0.253-0.213-0.32-0.307-0.493-0.733-0.493-1.173s0.173-0.867 0.493-1.173c0.067-0.080 0.16-0.147 0.253-0.213 0.080-0.053 0.187-0.107 0.28-0.147 0.107-0.053 0.213-0.080 0.32-0.107 0.533-0.107 1.107 0.080 1.493 0.467 0.32 0.307 0.493 0.733 0.493 1.173s-0.173 0.867-0.493 1.173zM22.507 24.507c-0.067 0.080-0.16 0.147-0.253 0.213-0.080 0.053-0.187 0.107-0.28 0.147-0.107 0.053-0.213 0.080-0.307 0.107-0.12 0.013-0.227 0.027-0.333 0.027s-0.213-0.013-0.32-0.027c-0.107-0.027-0.213-0.053-0.32-0.107-0.093-0.040-0.2-0.093-0.28-0.147-0.093-0.067-0.187-0.133-0.253-0.213-0.32-0.307-0.493-0.733-0.493-1.173s0.173-0.867 0.493-1.173c0.067-0.080 0.16-0.147 0.253-0.213 0.080-0.053 0.187-0.107 0.28-0.147 0.107-0.053 0.213-0.080 0.32-0.107 0.213-0.040 0.427-0.040 0.653 0 0.093 0.027 0.2 0.053 0.307 0.107 0.093 0.040 0.2 0.093 0.28 0.147 0.093 0.067 0.187 0.133 0.253 0.213 0.32 0.307 0.493 0.733 0.493 1.173s-0.173 0.867-0.493 1.173z"></path>
<path fill="#647b64" style="fill: var(--color1, #647b64)" d="M22.533 2.667h-13.067c-2.28 0-4.133 1.853-4.133 4.133v3.2c0 0.373 0.293 0.667 0.667 0.667h20c0.373 0 0.667-0.293 0.667-0.667v-3.2c0-2.28-1.853-4.133-4.133-4.133zM19.333 7.667h-6.667c-0.547 0-1-0.453-1-1s0.453-1 1-1h6.667c0.547 0 1 0.453 1 1s-0.453 1-1 1z"></path>
<path fill="#647b64" style="fill: var(--color1, #647b64)" d="M26 16h-20c-0.373 0-0.667-0.293-0.667-0.667v-2.667c0-0.373 0.293-0.667 0.667-0.667h20c0.373 0 0.667 0.293 0.667 0.667v2.667c0 0.373-0.293 0.667-0.667 0.667z"></path>
</symbol>
<symbol id="icon-dollar" viewBox="0 0 28 32">
<path fill="#647b64" style="fill: var(--color1, #647b64)" d="M26.478 6.843l-10.667-6.269c-1.034-0.607-2.298-0.607-3.331 0l-10.667 6.269c-1.001 0.591-1.625 1.674-1.625 2.823v12.652c0 1.165 0.624 2.232 1.625 2.823l10.667 6.269c1.034 0.607 2.298 0.607 3.331 0l10.667-6.269c1.001-0.591 1.625-1.674 1.625-2.823v-12.652c0-1.149-0.624-2.232-1.625-2.823zM22.999 21.973l-8.205 4.923c-0.197 0.115-0.41 0.18-0.64 0.18s-0.443-0.066-0.64-0.18l-8.205-4.923c-0.591-0.345-0.771-1.099-0.427-1.69s1.1-0.771 1.69-0.427l7.565 4.546 5.809-3.495-3.052-1.838-1.067 1.067c-0.246 0.246-0.558 0.361-0.87 0.361s-0.623-0.115-0.87-0.361c-0.476-0.476-0.476-1.264 0-1.739l0.624-0.624-2.954-1.772-0.853 0.853c-0.246 0.246-0.558 0.361-0.87 0.361s-0.623-0.115-0.87-0.361c-0.476-0.476-0.476-1.264 0-1.739l0.427-0.427-4.283-2.576c-0.377-0.23-0.591-0.624-0.591-1.050s0.23-0.837 0.591-1.050l8.205-4.923c0.394-0.23 0.886-0.23 1.264 0l8.205 4.923c0.591 0.345 0.771 1.1 0.427 1.69-0.345 0.574-1.099 0.771-1.69 0.427l-7.565-4.546-5.809 3.495 3.052 1.838 1.067-1.067c0.476-0.476 1.264-0.476 1.74 0s0.476 1.264 0 1.739l-0.624 0.624 2.954 1.772 0.853-0.853c0.476-0.476 1.264-0.476 1.74 0s0.476 1.264 0 1.739l-0.427 0.427 4.283 2.576c0.377 0.23 0.591 0.624 0.591 1.050s-0.213 0.837-0.574 1.050z"></path>
</symbol>
<symbol id="icon-dribbble" viewBox="0 0 32 32">
<path fill="#647b64" style="fill: var(--color1, #647b64)" d="M32 16c0 1.084-0.11 2.166-0.327 3.22-0.211 1.030-0.523 2.041-0.933 3.007-0.4 0.949-0.896 1.864-1.476 2.717-0.571 0.848-1.229 1.643-1.952 2.368-0.724 0.722-1.521 1.379-2.367 1.953-0.855 0.577-1.77 1.073-2.718 1.475-0.967 0.408-1.978 0.72-3.006 0.931-1.055 0.217-2.139 0.328-3.223 0.328s-2.169-0.111-3.222-0.328c-1.029-0.211-2.041-0.523-3.006-0.931-0.948-0.402-1.864-0.898-2.719-1.475-0.846-0.574-1.643-1.231-2.366-1.953-0.723-0.725-1.381-1.52-1.953-2.368-0.577-0.853-1.074-1.768-1.475-2.717-0.409-0.966-0.723-1.977-0.934-3.007-0.214-1.055-0.323-2.137-0.323-3.22s0.109-2.169 0.324-3.221c0.212-1.030 0.525-2.042 0.934-3.007 0.402-0.95 0.898-1.866 1.475-2.719 0.572-0.848 1.23-1.642 1.953-2.368 0.723-0.722 1.52-1.377 2.366-1.951 0.855-0.579 1.77-1.075 2.719-1.478 0.966-0.409 1.977-0.722 3.006-0.931 1.053-0.216 2.138-0.325 3.222-0.325s2.168 0.109 3.223 0.325c1.027 0.209 2.039 0.523 3.006 0.931 0.948 0.403 1.863 0.899 2.718 1.478 0.846 0.573 1.643 1.229 2.367 1.951 0.723 0.726 1.381 1.52 1.952 2.368 0.58 0.853 1.076 1.769 1.476 2.719 0.409 0.965 0.722 1.977 0.933 3.007 0.216 1.052 0.327 2.137 0.327 3.221zM10.169 3.641c-3.81 1.799-6.654 5.31-7.541 9.541 0.36 0.003 6.054 0.075 12.615-1.668-2.365-4.202-4.892-7.63-5.074-7.873zM16.375 13.619c-7.035 2.106-13.787 1.955-14.029 1.945-0.004 0.147-0.011 0.289-0.011 0.436 0 3.51 1.324 6.71 3.501 9.13-0.005-0.007 3.735-6.641 11.108-9.025 0.178-0.059 0.359-0.113 0.539-0.164-0.343-0.777-0.717-1.555-1.109-2.322zM25.023 5.745c-2.406-2.121-5.564-3.408-9.024-3.408-1.11 0-2.188 0.134-3.22 0.383 0.205 0.275 2.771 3.68 5.108 7.97 5.156-1.933 7.102-4.895 7.136-4.945zM18.415 18.205c-0.030 0.010-0.061 0.019-0.091 0.030-8.062 2.81-10.695 8.474-10.723 8.536 2.32 1.804 5.229 2.892 8.398 2.892 1.892 0 3.695-0.385 5.334-1.083-0.202-1.194-0.996-5.378-2.919-10.375zM23.635 27.331c3.068-2.070 5.247-5.358 5.855-9.166-0.281-0.091-4.104-1.301-8.515-0.594 1.792 4.925 2.52 8.936 2.66 9.759zM18.939 12.727c0.317 0.652 0.624 1.315 0.908 1.981 0.101 0.239 0.199 0.473 0.295 0.708 4.694-0.591 9.319 0.403 9.516 0.444-0.031-3.239-1.19-6.212-3.107-8.539-0.026 0.037-2.217 3.203-7.612 5.406z"></path>
</symbol>
<symbol id="icon-driving" viewBox="0 0 32 32">
<path fill="#647b64" style="fill: var(--color1, #647b64)" d="M16 25c-0.547 0-1-0.453-1-1v-1.333c0-0.547 0.453-1 1-1s1 0.453 1 1v1.333c0 0.547-0.453 1-1 1z"></path>
<path fill="#647b64" style="fill: var(--color1, #647b64)" d="M16 30.333c-0.547 0-1-0.453-1-1v-1.333c0-0.547 0.453-1 1-1s1 0.453 1 1v1.333c0 0.547-0.453 1-1 1z"></path>
<path fill="#647b64" style="fill: var(--color1, #647b64)" d="M2.667 30.333c-0.080 0-0.16-0.013-0.24-0.027-0.533-0.133-0.867-0.68-0.733-1.213l1.333-5.333c0.133-0.533 0.667-0.867 1.213-0.733 0.533 0.133 0.867 0.68 0.733 1.213l-1.333 5.333c-0.12 0.453-0.52 0.76-0.973 0.76z"></path>
<path fill="#647b64" style="fill: var(--color1, #647b64)" d="M29.003 30.003c-0.453 0-0.853-0.307-0.973-0.76l-1.333-5.333c-0.133-0.533 0.187-1.080 0.733-1.213 0.533-0.133 1.080 0.187 1.213 0.733l1.333 5.333c0.133 0.533-0.187 1.080-0.733 1.213-0.080 0.013-0.16 0.027-0.24 0.027z"></path>
<path fill="#647b64" style="fill: var(--color1, #647b64)" d="M25.52 7.067c0 0.4-0.333 0.72-0.72 0.72h-17.427c-0.4 0-0.72-0.333-0.72-0.72 0-0.4 0.333-0.72 0.72-0.72h0.987l0.373-1.747c0.347-1.707 1.067-3.267 3.947-3.267h6.787c2.88 0 3.613 1.56 3.96 3.253l0.373 1.747h0.987c0.4 0 0.733 0.333 0.733 0.733z"></path>
<path fill="#647b64" style="fill: var(--color1, #647b64)" d="M25.933 12.533c-0.147-1.6-0.573-3.293-3.68-3.293h-12.347c-3.107 0-3.52 1.707-3.68 3.293l-0.547 5.893c-0.067 0.733 0.173 1.467 0.68 2.027 0.52 0.56 1.24 0.88 2.013 0.88h1.813c1.573 0 1.867-0.893 2.067-1.493l0.2-0.587c0.227-0.667 0.28-0.827 1.147-0.827h4.96c0.867 0 0.893 0.093 1.147 0.827l0.2 0.587c0.187 0.6 0.493 1.493 2.053 1.493h1.813c0.76 0 1.493-0.32 2.013-0.88 0.507-0.547 0.747-1.293 0.68-2.027l-0.533-5.893zM13.173 14.56h-2.893c-0.4 0-0.72-0.333-0.72-0.72s0.333-0.72 0.72-0.72h2.907c0.4 0 0.72 0.333 0.72 0.72s-0.333 0.72-0.733 0.72zM21.88 14.56h-2.907c-0.4 0-0.72-0.333-0.72-0.72s0.333-0.72 0.72-0.72h2.907c0.4 0 0.72 0.333 0.72 0.72s-0.32 0.72-0.72 0.72z"></path>
</symbol>
<symbol id="icon-instagram" viewBox="0 0 32 32">
<path fill="#647b64" style="fill: var(--color1, #647b64)" d="M16.001 0c-4.345 0-4.891 0.019-6.597 0.097-1.703 0.078-2.866 0.348-3.883 0.743-1.052 0.409-1.945 0.955-2.834 1.845s-1.437 1.782-1.847 2.834c-0.397 1.018-0.667 2.181-0.743 3.883-0.076 1.707-0.096 2.252-0.096 6.598s0.019 4.889 0.097 6.596c0.078 1.703 0.348 2.866 0.743 3.883 0.409 1.052 0.956 1.945 1.845 2.834s1.782 1.438 2.833 1.847c1.018 0.396 2.181 0.665 3.884 0.743 1.707 0.078 2.252 0.097 6.597 0.097s4.889-0.019 6.596-0.097c1.703-0.078 2.867-0.348 3.885-0.743 1.052-0.409 1.943-0.957 2.832-1.847s1.437-1.782 1.847-2.834c0.393-1.018 0.663-2.181 0.743-3.883 0.077-1.707 0.097-2.251 0.097-6.596s-0.020-4.891-0.097-6.597c-0.080-1.703-0.35-2.866-0.743-3.883-0.41-1.052-0.957-1.945-1.847-2.834s-1.78-1.437-2.833-1.845c-1.020-0.396-2.183-0.665-3.887-0.743-1.707-0.078-2.25-0.097-6.597-0.097h0.005zM14.566 2.883c0.426-0.001 0.901 0 1.435 0 4.272 0 4.778 0.015 6.465 0.092 1.56 0.071 2.407 0.332 2.971 0.551 0.747 0.29 1.279 0.637 1.839 1.197s0.907 1.093 1.197 1.84c0.219 0.563 0.48 1.41 0.551 2.97 0.077 1.687 0.093 2.193 0.093 6.463s-0.017 4.777-0.093 6.463c-0.071 1.56-0.332 2.407-0.551 2.97-0.29 0.747-0.637 1.278-1.197 1.838s-1.092 0.907-1.839 1.197c-0.563 0.22-1.411 0.48-2.971 0.551-1.687 0.077-2.193 0.093-6.465 0.093s-4.779-0.017-6.465-0.093c-1.56-0.072-2.407-0.333-2.971-0.552-0.747-0.29-1.28-0.637-1.84-1.197s-0.907-1.092-1.197-1.839c-0.219-0.563-0.48-1.41-0.551-2.97-0.077-1.687-0.092-2.193-0.092-6.466s0.015-4.777 0.092-6.463c0.071-1.56 0.332-2.407 0.551-2.971 0.29-0.747 0.637-1.28 1.197-1.84s1.093-0.907 1.84-1.197c0.564-0.22 1.411-0.48 2.971-0.552 1.476-0.067 2.048-0.087 5.030-0.090v0.004zM24.542 5.54c-1.060 0-1.92 0.859-1.92 1.919s0.86 1.92 1.92 1.92 1.92-0.86 1.92-1.92c0-1.060-0.86-1.919-1.92-1.919zM16.001 7.783c-4.538 0-8.217 3.679-8.217 8.217s3.679 8.215 8.217 8.215 8.215-3.677 8.215-8.215c0-4.538-3.678-8.217-8.215-8.217zM16.001 10.667c2.945 0 5.333 2.388 5.333 5.333s-2.388 5.333-5.333 5.333c-2.946 0-5.333-2.388-5.333-5.333s2.388-5.333 5.333-5.333z"></path>
</symbol>
<symbol id="icon-Logo" viewBox="0 0 140 32">
<path fill="#647b64" style="fill: var(--color1, #647b64)" d="M19.511 22.060c-0.657 0-1.249-0.396-1.5-1.004l-0.959-2.323c-0.251-0.607-0.843-1.004-1.5-1.004h-6.709c-0.669 0-1.269 0.41-1.512 1.033l-0.884 2.265c-0.243 0.623-0.843 1.033-1.512 1.033h-2.454c-1.17 0-1.956-1.201-1.487-2.273l8.231-18.815c0.258-0.591 0.842-0.972 1.487-0.972h3.267c0.647 0 1.232 0.384 1.489 0.978l8.148 18.815c0.464 1.072-0.321 2.268-1.489 2.268h-2.617zM13.752 9.864c-0.526-1.394-2.495-1.401-3.032-0.011l-0.541 1.401c-0.411 1.063 0.374 2.208 1.514 2.208h1.070c1.135 0 1.919-1.135 1.518-2.196l-0.529-1.401z"></path>
<path fill="#647b64" style="fill: var(--color1, #647b64)" d="M46.046 23.089c0 1.329-0.238 2.545-0.715 3.646-0.455 1.080-1.116 2.015-1.982 2.804-0.867 0.769-1.917 1.371-3.152 1.807-1.213 0.436-2.567 0.654-4.062 0.654-1.516 0-2.881-0.218-4.094-0.654s-2.242-1.039-3.087-1.807c-0.845-0.789-1.495-1.724-1.95-2.804-0.455-1.101-0.682-2.316-0.682-3.646v-6.416c0-0.896-0.727-1.623-1.623-1.623h-5.159c-0.719 0-1.352-0.473-1.556-1.162l-0.728-2.456c-0.308-1.040 0.471-2.084 1.556-2.084h11.411c0.896 0 1.623 0.727 1.623 1.623v11.682c0 0.602 0.076 1.174 0.227 1.714 0.173 0.54 0.422 1.028 0.747 1.464 0.347 0.415 0.791 0.748 1.332 0.997 0.563 0.249 1.235 0.374 2.015 0.374s1.441-0.125 1.982-0.374c0.563-0.249 1.018-0.582 1.365-0.997 0.347-0.436 0.596-0.924 0.747-1.464s0.227-1.111 0.227-1.714v-11.682c0-0.896 0.727-1.623 1.623-1.623h2.311c0.896 0 1.623 0.727 1.623 1.623v12.118z"></path>
<path fill="#647b64" style="fill: var(--color1, #647b64)" d="M57.876 12.412c0.183-0.403 0.584-0.661 1.026-0.661v0c0.444 0 0.846 0.26 1.028 0.665l3.221 7.17c0.259 0.576-0.163 1.228-0.794 1.228v0c-0.349 0-0.665-0.209-0.802-0.53l-0.215-0.506c-0.267-0.629-0.884-1.037-1.567-1.037h-1.85c-0.679 0-1.29 0.409-1.549 1.037l-0.211 0.512c-0.131 0.317-0.44 0.525-0.783 0.525v0c-0.616 0-1.026-0.636-0.772-1.197l3.268-7.204zM58.848 17.357c0.702 0 1.184-0.708 0.926-1.361v0c-0.331-0.837-1.514-0.841-1.85-0.006v0c-0.263 0.654 0.219 1.367 0.924 1.367v0z"></path>
<path fill="#647b64" style="fill: var(--color1, #647b64)" d="M63.863 12.877c-0.171-0.56 0.248-1.126 0.834-1.126v0c0.393 0 0.737 0.262 0.841 0.641l1.649 6.002c0.002 0.008 0.009 0.013 0.017 0.013v0c0.008 0 0.015-0.005 0.017-0.013l1.82-5.818c0.154-0.491 0.609-0.826 1.123-0.826v0c0.517 0 0.974 0.338 1.126 0.832l1.783 5.811c0.002 0.007 0.009 0.013 0.017 0.013v0c0.008 0 0.015-0.005 0.017-0.013l1.691-6.024c0.103-0.366 0.437-0.619 0.817-0.619v0c0.57 0 0.978 0.551 0.812 1.096l-2.189 7.18c-0.143 0.467-0.574 0.787-1.063 0.787v0c-0.481 0-0.907-0.309-1.056-0.766l-1.962-6.018c-0.002-0.008-0.009-0.013-0.017-0.013v0c-0.008 0-0.015 0.005-0.017 0.013l-1.962 6.018c-0.149 0.457-0.575 0.766-1.056 0.766v0c-0.489 0-0.92-0.319-1.062-0.787l-2.18-7.149z"></path>
<path fill="#647b64" style="fill: var(--color1, #647b64)" d="M77.882 13.75c0-1.105 0.895-2 2-2h3.557c0.389 0 0.704 0.315 0.704 0.704v0c0 0.389-0.315 0.704-0.704 0.704h-2.723c-0.636 0-1.152 0.516-1.152 1.152v0c0 0.636 0.516 1.152 1.152 1.152h2.508c0.375 0 0.679 0.304 0.679 0.678v0c0 0.375-0.304 0.678-0.679 0.678h-2.38c-0.707 0-1.28 0.573-1.28 1.28v0c0 0.707 0.573 1.28 1.28 1.28h2.822c0.396 0 0.717 0.321 0.717 0.717v0c0 0.396-0.321 0.717-0.717 0.717h-3.784c-1.105 0-2-0.895-2-2v-5.062z"></path>
<path fill="#647b64" style="fill: var(--color1, #647b64)" d="M91.424 13.039c-0.305 0.32-0.837 0.297-1.233 0.103-0.033-0.016-0.068-0.032-0.103-0.048-0.321-0.154-0.645-0.23-0.975-0.23-0.196 0-0.391 0.026-0.587 0.077-0.196 0.043-0.374 0.115-0.534 0.218-0.16 0.094-0.294 0.222-0.401 0.384-0.098 0.154-0.147 0.341-0.147 0.563 0 0.205 0.045 0.38 0.133 0.525s0.209 0.269 0.361 0.371c0.16 0.102 0.351 0.192 0.574 0.269s0.467 0.154 0.734 0.23c0.303 0.094 0.614 0.201 0.935 0.32 0.329 0.119 0.627 0.277 0.894 0.474 0.276 0.196 0.499 0.444 0.668 0.742 0.178 0.299 0.267 0.67 0.267 1.114 0 0.486-0.093 0.913-0.28 1.28-0.187 0.358-0.436 0.657-0.748 0.896s-0.676 0.418-1.095 0.538c-0.418 0.119-0.859 0.179-1.321 0.179-0.614 0-1.215-0.107-1.802-0.32-0.323-0.122-0.615-0.275-0.873-0.46-0.346-0.247-0.313-0.742 0.003-1.025v0c0.339-0.303 0.865-0.239 1.25 0.003 0.095 0.059 0.195 0.114 0.301 0.164 0.391 0.179 0.774 0.269 1.148 0.269 0.196 0 0.396-0.021 0.601-0.064 0.205-0.051 0.387-0.132 0.547-0.243 0.169-0.111 0.303-0.247 0.401-0.41 0.107-0.171 0.16-0.38 0.16-0.627 0-0.239-0.058-0.435-0.173-0.589-0.116-0.162-0.271-0.299-0.467-0.41-0.196-0.119-0.427-0.222-0.694-0.307s-0.547-0.175-0.841-0.269c-0.285-0.085-0.569-0.188-0.854-0.307s-0.543-0.277-0.775-0.474c-0.222-0.196-0.405-0.435-0.547-0.717-0.142-0.29-0.213-0.649-0.213-1.075 0-0.461 0.098-0.858 0.294-1.19 0.205-0.333 0.467-0.606 0.787-0.819 0.329-0.222 0.699-0.384 1.108-0.486 0.418-0.111 0.841-0.166 1.268-0.166 0.481 0 0.966 0.081 1.455 0.243 0.243 0.079 0.469 0.177 0.681 0.295 0.36 0.2 0.379 0.683 0.095 0.982v0z"></path>
<path fill="#647b64" style="fill: var(--color1, #647b64)" d="M93.241 16.256c0-0.725 0.125-1.378 0.373-1.958 0.258-0.589 0.61-1.088 1.055-1.498 0.454-0.41 0.988-0.725 1.602-0.947 0.623-0.222 1.299-0.333 2.029-0.333 0.739 0 1.419 0.111 2.042 0.333s1.161 0.538 1.615 0.947 0.805 0.909 1.055 1.498c0.258 0.58 0.387 1.233 0.387 1.958 0 0.708-0.129 1.357-0.387 1.946-0.249 0.58-0.601 1.084-1.055 1.51-0.454 0.418-0.992 0.747-1.615 0.986-0.623 0.23-1.303 0.346-2.042 0.346-0.73 0-1.407-0.115-2.029-0.346-0.614-0.239-1.148-0.567-1.602-0.986-0.445-0.427-0.797-0.93-1.055-1.51-0.249-0.589-0.373-1.237-0.373-1.946zM95.070 16.256c0 0.486 0.075 0.934 0.227 1.344 0.161 0.401 0.383 0.751 0.668 1.050 0.293 0.299 0.636 0.533 1.027 0.704 0.401 0.162 0.841 0.243 1.322 0.243s0.921-0.081 1.321-0.243c0.401-0.171 0.743-0.405 1.028-0.704 0.293-0.299 0.516-0.649 0.667-1.050 0.16-0.41 0.24-0.858 0.24-1.344 0-0.469-0.080-0.905-0.24-1.306-0.151-0.401-0.369-0.751-0.654-1.050s-0.627-0.533-1.028-0.704c-0.401-0.171-0.845-0.256-1.335-0.256s-0.935 0.085-1.335 0.256c-0.391 0.171-0.729 0.405-1.014 0.704s-0.507 0.649-0.668 1.050c-0.151 0.401-0.227 0.836-0.227 1.306z"></path>
<path fill="#647b64" style="fill: var(--color1, #647b64)" d="M105.023 13.308c0-0.86 0.697-1.557 1.557-1.557v0c0.646 0 1.225 0.399 1.455 1.002l2.067 5.418c0.004 0.011 0.015 0.019 0.027 0.019v0c0.012 0 0.023-0.007 0.027-0.019l2.041-5.409c0.23-0.608 0.812-1.011 1.462-1.011v0c0.863 0 1.563 0.7 1.563 1.563v6.665c0 0.461-0.373 0.834-0.834 0.834v0c-0.461 0-0.835-0.374-0.835-0.834v-6.433c0-0.009-0.007-0.016-0.015-0.016v0c-0.007 0-0.013 0.004-0.015 0.010l-2.651 6.728c-0.129 0.329-0.447 0.545-0.801 0.545v0c-0.355 0-0.673-0.218-0.802-0.549l-2.613-6.724c-0.003-0.006-0.008-0.010-0.015-0.010v0c-0.009 0-0.016 0.007-0.016 0.016v6.466c0 0.442-0.359 0.801-0.801 0.801v0c-0.443 0-0.801-0.359-0.801-0.801v-6.704z"></path>
<path fill="#647b64" style="fill: var(--color1, #647b64)" d="M117.303 13.75c0-1.105 0.896-2 2-2h3.557c0.389 0 0.704 0.315 0.704 0.704v0c0 0.389-0.315 0.704-0.704 0.704h-2.723c-0.636 0-1.152 0.516-1.152 1.152v0c0 0.636 0.516 1.152 1.152 1.152h2.509c0.375 0 0.678 0.304 0.678 0.678v0c0 0.375-0.303 0.678-0.678 0.678h-2.381c-0.707 0-1.28 0.573-1.28 1.28v0c0 0.707 0.573 1.28 1.28 1.28h2.823c0.396 0 0.717 0.321 0.717 0.717v0c0 0.396-0.321 0.717-0.717 0.717h-3.785c-1.104 0-2-0.895-2-2v-5.062z"></path>
<path fill="#647b64" style="fill: var(--color1, #647b64)" d="M136.317 17.485c0 0.546-0.098 1.041-0.293 1.485-0.196 0.435-0.463 0.806-0.801 1.114s-0.739 0.546-1.201 0.717c-0.463 0.162-0.965 0.243-1.509 0.243s-1.045-0.081-1.508-0.243c-0.463-0.171-0.868-0.41-1.215-0.717-0.339-0.307-0.605-0.678-0.801-1.114-0.187-0.444-0.28-0.939-0.28-1.485v-4.893c0-0.464 0.377-0.841 0.841-0.841v0c0.465 0 0.841 0.377 0.841 0.841v4.829c0 0.265 0.035 0.529 0.107 0.794 0.071 0.256 0.187 0.486 0.347 0.691 0.169 0.205 0.387 0.371 0.655 0.499 0.275 0.128 0.614 0.192 1.014 0.192s0.735-0.064 1.001-0.192c0.276-0.128 0.494-0.294 0.654-0.499 0.169-0.205 0.289-0.435 0.361-0.691 0.071-0.265 0.107-0.529 0.107-0.794v-4.829c0-0.464 0.377-0.841 0.841-0.841v0c0.464 0 0.841 0.377 0.841 0.841v4.893z"></path>
<path fill="#647b64" style="fill: var(--color1, #647b64)" d="M138.318 12.591c0-0.464 0.377-0.841 0.841-0.841v0c0.464 0 0.841 0.377 0.841 0.841v7.38c0 0.464-0.377 0.841-0.841 0.841v0c-0.465 0-0.841-0.377-0.841-0.841v-7.38z"></path>
</symbol>
<symbol id="icon-python" viewBox="0 0 32 32">
<path fill="#647b64" style="fill: var(--color1, #647b64)" d="M20.772 0.561c-3.16-0.49-6.384-0.49-9.545 0-1.296 0.205-2.244 1.312-2.244 2.607v5.815h-5.815c-1.296 0-2.402 0.948-2.607 2.244-0.49 3.16-0.49 6.384 0 9.545 0.205 1.296 1.312 2.244 2.607 2.244h2.655c0.442 0 0.79-0.348 0.79-0.79v-2.718c0-3.24 2.639-5.879 5.879-5.879h7.016c0.632 0 1.138-0.506 1.138-1.138v-5.088c0-0.442 0.348-0.79 0.79-0.79h0.79c0.442 0 0.79-0.348 0.79-0.79v-2.655c0-1.296-0.948-2.402-2.244-2.607zM13.361 5.855c-0.648 0-1.264-0.616-1.264-1.264 0-0.664 0.616-1.28 1.264-1.28 0.316 0 0.664 0.142 0.885 0.363 0.237 0.221 0.395 0.585 0.395 0.917 0 0.648-0.616 1.264-1.28 1.264z"></path>
<path fill="#647b64" style="fill: var(--color1, #647b64)" d="M31.439 11.228c-0.205-1.296-1.312-2.244-2.607-2.244h-5.025c-0.442 0-0.79 0.348-0.79 0.79v2.718c0 1.928-1.564 3.508-3.508 3.508h-7.016c-1.944 0-3.508 1.564-3.508 3.508v9.323c0 1.296 0.948 2.402 2.244 2.607 3.16 0.49 6.384 0.49 9.545 0 1.296-0.205 2.244-1.312 2.244-2.607v-5.815h5.815c1.296 0 2.402-0.948 2.607-2.244 0.49-3.161 0.49-6.384 0-9.545zM18.639 28.689c-0.648 0-1.28-0.616-1.28-1.28s0.616-1.28 1.28-1.28c0.3 0 0.664 0.142 0.885 0.348 0.237 0.221 0.395 0.6 0.395 0.916-0.016 0.68-0.632 1.296-1.28 1.296z"></path>
</symbol>
<symbol id="icon-ship" viewBox="0 0 32 32">
<path fill="#647b64" style="fill: var(--color1, #647b64)" d="M28.84 19.547l-0.547 2.48c-0.947 4.267-4.293 7.307-9.12 7.307h-6.347c-4.827 0-8.173-3.040-9.12-7.307l-0.547-2.48c-0.267-1.213 0.453-2.587 1.613-3.053l9.24-3.707c0.64-0.253 1.32-0.387 1.987-0.387s1.347 0.133 1.987 0.387l9.24 3.707c1.16 0.467 1.88 1.84 1.613 3.053z"></path>
<path fill="#647b64" style="fill: var(--color1, #647b64)" d="M25.333 10.667v1.92c0 0.467-0.48 0.8-0.92 0.613l-5.693-2.28c-1.747-0.68-3.693-0.68-5.453 0.013l-5.68 2.28c-0.44 0.187-0.92-0.147-0.92-0.613v-1.933c0-2.2 1.8-4 4-4h10.667c2.2 0 4 1.8 4 4z"></path>
<path fill="#647b64" style="fill: var(--color1, #647b64)" d="M19.333 6.667h-6.667v-2.667c0-0.733 0.6-1.333 1.333-1.333h4c0.733 0 1.333 0.6 1.333 1.333v2.667z"></path>
</symbol>
<symbol id="icon-smart-car" viewBox="0 0 32 32">
<path fill="#647b64" style="fill:#647b64" d="M24.947 12.653c-0.133 0-0.267-0.027-0.4-0.080-0.507-0.227-0.733-0.813-0.52-1.32 0.253-0.573 0.107-1.413-0.36-2.107-0.467-0.707-1.173-1.187-1.813-1.147-0.587 0-1-0.44-1.013-0.987 0-0.56 0.44-1 0.987-1.013 1.373-0.027 2.667 0.76 3.507 2.027 0.853 1.28 1.053 2.813 0.533 4.013-0.16 0.387-0.533 0.613-0.92 0.613z"></path>
<path fill="#647b64" style="fill:#647b64" d="M29.093 13.973c-0.093 0-0.173-0.013-0.267-0.040-0.533-0.147-0.84-0.693-0.693-1.227 0.507-1.813 0.080-3.973-1.133-5.787s-3.053-3.027-4.933-3.253c-0.547-0.067-0.933-0.56-0.867-1.107s0.573-0.947 1.107-0.867c2.44 0.293 4.813 1.84 6.347 4.133s2.053 5.067 1.4 7.44c-0.12 0.413-0.52 0.707-0.96 0.707z"></path>
<path fill="#647b64" style="fill:#647b64" d="M22.827 15.707c0 0.4-0.333 0.733-0.733 0.733h-17.52c-0.4 0-0.733-0.333-0.733-0.733s0.333-0.733 0.733-0.733h0.987l0.373-1.76c0.347-1.707 1.080-3.267 3.987-3.267h6.84c2.907 0 3.627 1.573 3.987 3.267l0.373 1.76h0.987c0.387 0 0.72 0.333 0.72 0.733z"></path>
<path fill="#647b64" style="fill:#647b64" d="M23.24 21.213c-0.147-1.6-0.573-3.32-3.693-3.32h-12.427c-3.12 0-3.547 1.72-3.693 3.32l-0.547 5.933c-0.067 0.733 0.173 1.48 0.68 2.040 0.52 0.56 1.24 0.88 2.027 0.88h1.827c1.573 0 1.88-0.907 2.080-1.493l0.2-0.587c0.227-0.667 0.28-0.84 1.16-0.84h4.987c0.88 0 0.907 0.093 1.16 0.84l0.2 0.587c0.2 0.6 0.493 1.493 2.080 1.493h1.827c0.773 0 1.507-0.32 2.027-0.88 0.507-0.56 0.747-1.293 0.68-2.040l-0.573-5.933zM10.413 23.24h-2.92c-0.4 0-0.733-0.333-0.733-0.733s0.333-0.733 0.733-0.733h2.92c0.4 0 0.733 0.333 0.733 0.733s-0.333 0.733-0.733 0.733zM19.173 23.24h-2.92c-0.4 0-0.733-0.333-0.733-0.733s0.333-0.733 0.733-0.733h2.92c0.4 0 0.733 0.333 0.733 0.733s-0.333 0.733-0.733 0.733z"></path>
</symbol>
<symbol id="icon-twitter" viewBox="0 0 32 32">
<path fill="#647b64" style="fill: var(--color1, #647b64)" d="M15.538 9.448l0.069 1.211-1.156-0.148c-4.208-0.568-7.885-2.496-11.006-5.734l-1.526-1.607-0.393 1.186c-0.832 2.645-0.301 5.437 1.434 7.316 0.925 1.038 0.717 1.186-0.879 0.568-0.555-0.198-1.040-0.346-1.087-0.272-0.162 0.173 0.393 2.422 0.832 3.312 0.601 1.236 1.827 2.447 3.168 3.164l1.133 0.568-1.341 0.025c-1.295 0-1.341 0.025-1.202 0.544 0.462 1.606 2.289 3.312 4.324 4.053l1.434 0.519-1.249 0.791c-1.85 1.137-4.023 1.779-6.197 1.829-1.040 0.025-1.896 0.124-1.896 0.198 0 0.247 2.821 1.631 4.463 2.175 4.925 1.607 10.775 0.914 15.168-1.829 3.121-1.953 6.243-5.833 7.7-9.59 0.786-2.002 1.572-5.66 1.572-7.415 0-1.137 0.069-1.285 1.364-2.645 0.763-0.791 1.48-1.656 1.619-1.903 0.231-0.47 0.208-0.47-0.971-0.049-1.965 0.741-2.243 0.643-1.272-0.47 0.717-0.791 1.572-2.224 1.572-2.645 0-0.074-0.347 0.049-0.74 0.272-0.416 0.247-1.341 0.618-2.035 0.84l-1.249 0.42-1.133-0.816c-0.624-0.445-1.503-0.939-1.965-1.087-1.179-0.346-2.983-0.297-4.046 0.099-2.89 1.112-4.717 3.979-4.509 7.118z"></path>
</symbol>
<symbol id="icon-yena" viewBox="0 0 32 32">
<path fill="#647b64" style="fill: var(--color1, #647b64)" d="M16 0.197c-8.723 0-15.802 7.080-15.802 15.803s7.080 15.802 15.802 15.802c8.723 0 15.802-7.079 15.802-15.802s-7.080-15.803-15.803-15.803zM23.111 19.555h-4.82l3.145 4.456c0.379 0.537 0.253 1.28-0.284 1.643-0.205 0.142-0.443 0.221-0.68 0.221-0.379 0-0.743-0.174-0.964-0.506l-3.635-5.152-3.635 5.152c-0.237 0.332-0.6 0.506-0.964 0.506-0.237 0-0.474-0.063-0.68-0.221-0.537-0.379-0.664-1.122-0.284-1.643l3.145-4.456h-4.535c-0.648 0-1.185-0.537-1.185-1.185s0.537-1.185 1.185-1.185h14.222c0.648 0 1.185 0.537 1.185 1.185s-0.569 1.185-1.217 1.185zM23.111 14.815h-14.222c-0.648 0-1.185-0.537-1.185-1.185s0.537-1.185 1.185-1.185h4.535l-3.145-4.456c-0.379-0.537-0.253-1.28 0.284-1.643 0.537-0.379 1.28-0.253 1.643 0.285l3.635 5.152 3.635-5.152c0.379-0.537 1.122-0.664 1.643-0.284 0.537 0.379 0.664 1.122 0.284 1.643l-3.145 4.456h4.82c0.648 0 1.185 0.537 1.185 1.185s-0.506 1.185-1.154 1.185z"></path>
</symbol>
<symbol id="icon-youtube" viewBox="0 0 32 32">
<path fill="#647b64" style="fill: var(--color1, #647b64)" d="M28.502 2.836c1.377 0.46 2.461 1.815 2.829 3.536 0.669 3.119 0.669 9.628 0.669 9.628s0 6.508-0.669 9.628c-0.368 1.721-1.452 3.076-2.829 3.536-2.495 0.836-12.502 0.836-12.502 0.836s-10.007 0-12.502-0.836c-1.377-0.46-2.461-1.815-2.829-3.536-0.669-3.12-0.669-9.628-0.669-9.628s0-6.508 0.669-9.628c0.368-1.721 1.452-3.076 2.829-3.536 2.495-0.836 12.502-0.836 12.502-0.836s10.007 0 12.502 0.836zM13 10.522v12.174l8-6.087-8-6.087z"></path>
</symbol>
</defs>
</svg>
