<svg width="54" height="54" viewBox="0 0 54 54" fill="none" xmlns="http://www.w3.org/2000/svg">
<path d="M26.9998 0.333099C12.2798 0.333099 0.33313 12.2798 0.33313 26.9998C0.33313 41.7198 12.2798 53.6664 26.9998 53.6664C41.7198 53.6664 53.6665 41.7198 53.6665 26.9998C53.6665 12.2798 41.7198 0.333099 26.9998 0.333099ZM38.9998 32.9998H30.8665L36.1731 40.5198C36.8131 41.4265 36.5998 42.6798 35.6932 43.2931C35.3465 43.5331 34.9464 43.6664 34.5464 43.6664C33.9064 43.6664 33.2931 43.3731 32.9198 42.8131L26.7865 34.1198L20.6531 42.8131C20.2531 43.3731 19.6398 43.6664 19.0265 43.6664C18.6265 43.6664 18.2264 43.5598 17.8798 43.2931C16.9731 42.6531 16.7598 41.3998 17.3998 40.5198L22.7065 32.9998H15.0531C13.9598 32.9998 13.0531 32.0931 13.0531 30.9998C13.0531 29.9064 13.9598 28.9998 15.0531 28.9998H39.0531C40.1464 28.9998 41.0531 29.9064 41.0531 30.9998C41.0531 32.0931 40.0931 32.9998 38.9998 32.9998ZM38.9998 24.9998H14.9998C13.9065 24.9998 12.9998 24.0931 12.9998 22.9998C12.9998 21.9064 13.9065 20.9998 14.9998 20.9998H22.6531L17.3465 13.4797C16.7065 12.5731 16.9198 11.3198 17.8265 10.7064C18.7331 10.0664 19.9865 10.2798 20.5998 11.1865L26.7331 19.8798L32.8665 11.1865C33.5065 10.2798 34.7598 10.0664 35.6398 10.7064C36.5464 11.3464 36.7598 12.5997 36.1198 13.4797L30.8131 20.9998H38.9465C40.0398 20.9998 40.9465 21.9064 40.9465 22.9998C40.9465 24.0931 40.0931 24.9998 38.9998 24.9998Z" fill="#647B64"/>
</svg>
